<?xml version="1.0" encoding="UTF-8"?> <svg xmlns="http://www.w3.org/2000/svg" width="627" height="191" viewBox="0 0 627 191" fill="none"><g clip-path="url(#clip0_101_215)"><path d="M58.438 0L69.5361 11.1049H47.3593L58.438 0Z" fill="#110614"></path><path d="M15.3369 23.7135H7.09041V38.2501H15.3369C20.6932 38.2501 24.0457 35.3004 24.0457 30.9818C24.0457 26.2005 20.6354 23.7135 15.3369 23.7135ZM15.1056 44.6508H7.09041V57.6258H0V17.2549H15.9149C25.3174 17.2549 31.2325 22.5567 31.2325 30.8083C31.2325 39.9274 23.9687 44.6508 15.0864 44.6508" fill="#110614"></path><path d="M58.3802 23.0773C50.365 23.0773 44.7775 29.478 44.7775 37.3826C44.7775 45.2871 50.4806 51.8035 58.4959 51.8035C66.5111 51.8035 72.0986 45.4027 72.0986 37.4982C72.0986 29.5937 66.3955 23.0773 58.3802 23.0773ZM58.3802 58.3199C45.9913 58.3199 37.3402 48.9116 37.3402 37.4982C37.3402 26.0849 46.0876 16.5609 58.4959 16.5609C70.9041 16.5609 79.5359 25.9692 79.5359 37.3826C79.5359 48.7959 70.7692 58.3199 58.3802 58.3199Z" fill="#110614"></path><path d="M87.5318 17.2549H94.6222V51.1672H115.816V57.6258H87.5318V17.2549Z" fill="#110614"></path><path d="M153.118 23.5978H130.305V34.1051H150.536V40.4479H130.305V51.2829H153.407V57.6258H123.215V17.2549H153.118V23.5978Z" fill="#110614"></path><path d="M194.177 23.7135H186.219V51.1672H194.177C202.655 51.1672 208.184 45.4606 208.184 37.4982C208.184 29.5359 202.655 23.7135 194.177 23.7135ZM194.177 57.6258H179.129V17.2549H194.177C206.855 17.2549 215.622 25.9692 215.622 37.3825C215.622 48.7959 206.855 57.6258 194.177 57.6258Z" fill="#110614"></path><path d="M226.18 25.1595H223.251V17.2549H230.92V24.0027C230.92 30.4034 227.856 33.1218 222.038 33.5845L221.305 30.5769C224.812 29.9407 226.488 28.1477 226.199 25.1595" fill="#110614"></path><path d="M269.647 23.5978H246.835V34.1051H267.046V40.4479H246.835V51.2829H269.936V57.6258H239.725V17.2549H269.647V23.5978Z" fill="#110614"></path><path d="M304.695 57.6258L294.098 42.3566L283.443 57.6258H275.312L289.994 37.0933L275.89 17.2549H284.252L294.271 31.7337L304.367 17.2549H312.479L298.414 36.9777L313.076 57.6258H304.695Z" fill="#110614"></path><path d="M336.255 58.3199C324.502 58.3199 315.735 49.1429 315.735 37.4982C315.735 25.8535 324.328 16.5609 336.544 16.5609C343.981 16.5609 348.47 19.1636 352.343 22.846L347.777 28.0899C344.54 25.1016 341.091 23.0773 336.486 23.0773C328.779 23.0773 323.172 29.4202 323.172 37.3826C323.172 45.3449 328.76 51.8035 336.486 51.8035C341.438 51.8035 344.617 49.7791 348.066 46.5595L352.632 51.1673C348.432 55.5437 343.808 58.3199 336.274 58.3199" fill="#110614"></path><path d="M389.972 23.5978H367.16V34.1051H387.39V40.4479H367.16V51.2829H390.261V57.6258H360.069V17.2549H389.972V23.5978Z" fill="#110614"></path><path d="M398.7 17.2549H405.791V51.1672H427.004V57.6258H398.7V17.2549Z" fill="#110614"></path><path d="M434.384 17.2549H441.474V51.1672H462.687V57.6258H434.384V17.2549Z" fill="#110614"></path><path d="M499.989 23.5978H477.177V34.1051H497.388V40.4479H477.177V51.2829H500.278V57.6258H470.067V17.2549H499.989V23.5978Z" fill="#110614"></path><path d="M536.886 17.2549H543.861V57.6258H537.927L515.673 28.9189V57.6258H508.698V17.2549H515.268L536.886 45.1714V17.2549Z" fill="#110614"></path><path d="M572.974 58.3199C561.221 58.3199 552.454 49.1429 552.454 37.4982C552.454 25.8535 561.048 16.5609 573.263 16.5609C580.7 16.5609 585.19 19.1636 589.062 22.846L584.496 28.0899C581.259 25.1016 577.81 23.0773 573.205 23.0773C565.479 23.0773 559.892 29.4202 559.892 37.3826C559.892 45.3449 565.479 51.8035 573.205 51.8035C578.157 51.8035 581.336 49.7791 584.785 46.5595L589.332 51.1673C585.113 55.5437 580.508 58.3199 572.955 58.3199" fill="#110614"></path><path d="M626.711 23.5978H603.898V34.1051H624.129V40.4479H603.898V51.2829H627V57.6258H596.808V17.2549H626.711V23.5978Z" fill="#110614"></path><path d="M394.385 86.564V102.334H485.5V86.564H394.385Z" fill="#110614"></path><path d="M3.81495 116.659C1.29092 122.963 0 130.02 0 137.673C0 145.327 1.29092 152.345 3.81495 158.861C6.33898 165.339 9.90345 171.007 14.4313 175.731C18.9399 180.454 24.354 184.214 30.5003 186.932C36.6273 189.65 43.3902 191.019 50.6347 191.019H107.319V175.133H50.6347C45.6445 175.133 40.9625 174.188 36.7237 172.357C32.4848 170.506 28.7855 167.942 25.722 164.722C22.6585 161.503 20.2115 157.589 18.4967 153.097C16.7626 148.643 15.8956 143.746 15.8956 138.56C15.8956 133.374 16.7626 128.381 18.4967 124.004C20.2308 119.628 22.6585 115.791 25.722 112.63C28.8048 109.449 32.5041 106.923 36.7429 105.149C40.9818 103.356 45.6638 102.45 50.654 102.45H107.339V86.564H50.654C43.3902 86.564 36.6081 87.7979 30.4618 90.2271C24.3155 92.6563 18.9206 96.1266 14.412 100.542C9.90345 104.956 6.33898 110.374 3.81495 116.659Z" fill="#110614"></path><path d="M226.084 86.564L183.522 136.787L141.134 86.564H119.67L174.929 151.169V191H190.805V151.169L246.218 86.564H226.084Z" fill="#110614"></path><path d="M371.822 172.781C373.364 169.002 374.154 164.684 374.154 159.96C374.154 154.022 372.67 149.048 369.722 145.173C366.774 141.298 362.94 138.58 358.335 137.114L353.942 135.707L358.355 134.377C360.166 133.837 361.938 132.989 363.653 131.832C365.329 130.694 366.832 129.268 368.104 127.571C369.375 125.894 370.377 123.831 371.129 121.44C371.88 119.011 372.246 116.119 372.246 112.861C372.246 108.581 371.437 104.744 369.876 101.448C368.296 98.1702 366.061 95.4132 363.21 93.2732C360.32 91.0754 356.794 89.3981 352.709 88.2606C348.586 87.1231 343.923 86.5447 338.856 86.5447H261.825V190.981H341.072C346.12 190.981 350.744 190.248 354.829 188.783C358.913 187.337 362.42 185.216 365.252 182.517C368.085 179.818 370.3 176.541 371.842 172.742L371.822 172.781ZM356.042 167.074C354.79 169.041 353.017 170.66 350.744 171.913C348.528 173.128 345.908 173.996 342.921 174.497C340.012 174.998 336.794 175.249 333.384 175.249H277.682V102.45H331.765C335.214 102.45 338.413 102.604 341.264 102.894C344.231 103.221 346.813 103.877 348.952 104.86C351.206 105.901 352.979 107.424 354.212 109.371C355.426 111.319 356.062 113.883 356.062 117.006C356.062 122.173 354.578 125.932 351.669 128.169C348.856 130.328 344.617 131.408 339.01 131.408H294.117V144.344H340.32C345.966 144.344 350.359 145.674 353.364 148.316C356.428 151.015 357.969 154.813 357.969 159.652C357.969 162.582 357.333 165.069 356.042 167.055V167.074Z" fill="#110614"></path><path d="M604.496 191H627L595.575 159.247L597.617 158.476C604.264 155.95 609.524 151.747 613.224 145.983C616.942 140.18 618.831 132.873 618.831 124.255C618.831 118.471 617.964 113.169 616.249 108.504C614.553 103.896 612.087 99.9246 608.908 96.7049C605.729 93.4853 601.779 90.9597 597.174 89.2246C592.531 87.4702 587.194 86.5833 581.298 86.5833H505.731V191.019H521.472V102.469H581.317C588.157 102.469 593.552 104.32 597.405 107.945C601.278 111.608 603.243 117.199 603.243 124.544C603.243 131.89 601.374 137.596 597.694 141.529C593.995 145.501 588.484 147.506 581.317 147.506H538.042V161.194H577.367L604.496 191Z" fill="#110614"></path><path d="M394.385 130.906V146.677H485.5V130.906H394.385Z" fill="#110614"></path><path d="M394.385 175.249V191H485.5V175.249H394.385Z" fill="#110614"></path></g><defs><clipPath id="clip0_101_215"><rect width="627" height="191" fill="white"></rect></clipPath></defs></svg> 